# xmcd
#
# Track frame offsets: 
#        150
#        18986
#        41129
#        72556
#        89701
#        116546
#        133858
#        151871
#        167375
#        182572
#        202486
#
# Disc length: 2902 seconds
#
# Revision: 0
# Processed by: cddbd v1.5.2PL0 Copyright (c) Steve Scherf et al.
# Submitted via: ExactAudioCopy v1.3
#
DISCID=9d0b540b
DTITLE=Bobby Mack - Texas Guitar (Highway Man)
DYEAR=2014
DGENRE=Guitar Blues
TTITLE0=Highway Man
TTITLE1=Borrowed Time
TTITLE2=Pourin' Rain
TTITLE3=Doin' Alright
TTITLE4=Heart Of A Lonely Man
TTITLE5=A Matter Of Time
TTITLE6=Palace Of The King
TTITLE7=I Can't Help Myself
TTITLE8=Pumpkin Pie
TTITLE9=Fender Bender
TTITLE10=Steppin' Out
EXTD=
EXTT0=
EXTT1=
EXTT2=
EXTT3=
EXTT4=
EXTT5=
EXTT6=
EXTT7=
EXTT8=
EXTT9=
EXTT10=
PLAYORDER=
